# xmcd CD database file
#
# Track frame offsets:
#	182
#	13142
#	27115
#	47015
#	60832
#	75832
#	94645
#	109652
#	123977
#	139845
#	153490
#	175020
#
# Disc length: 2494 seconds
#
# Revision: 0
# Processed by: cddbd v1.5.1PL0 Copyright (c) Steve Scherf et al.
# Submitted via: CDex 1.51
#
DISCID=8409bc0c
DTITLE=Dinos Country Hits - The Gree Green Grass of home
DYEAR=1900
DGENRE=Country
TTITLE0=Del Reeves - The green, green grass of home
TTITLE1=Jean Sheppard - I wish I was a Teddy Bear
TTITLE2=Jeff Turner - Meet me in Montana
TTITLE3=Sanna and Couloured Leaf - Dancing on water
TTITLE4=Dave Dudley - Have it your way
TTITLE5=Texas Radio - Take some time
TTITLE6=Britta T. - You makeme feel like a woman
TTITLE7=Sanda Vanreys - Let us try
TTITLE8=Rattlesnake Annie - Blue Texas Xmas
TTITLE9=George Hamilton W. - Canadian Pacific
TTITLE10=Che 6 Ray - J. Pettitt - J. Brack - Crying Time
TTITLE11=Johnny Carver - Its a beautiful day
EXTD=
EXTT0=
EXTT1=
EXTT2=
EXTT3=
EXTT4=
EXTT5=
EXTT6=
EXTT7=
EXTT8=
EXTT9=
EXTT10=
EXTT11=
PLAYORDER=
